<?xml version="1.0" standalone="no"?>
<!DOCTYPE svg PUBLIC "-//W3C//DTD SVG 20010904//EN"
 "http://www.w3.org/TR/2001/REC-SVG-20010904/DTD/svg10.dtd">
<svg version="1.0" xmlns="http://www.w3.org/2000/svg"
 width="500.000000pt" height="500.000000pt" viewBox="0 0 500.000000 500.000000"
 preserveAspectRatio="xMidYMid meet">

<g transform="translate(0.000000,500.000000) scale(0.100000,-0.100000)"
fill="#000000" stroke="none">
<path d="M1405 2890 l50 -51 162 2 c90 0 163 1 163 2 0 1 7 23 15 50 l14 47
-227 0 -226 0 49 -50z"/>
<path d="M1844 2913 c-4 -16 -21 -81 -39 -145 -21 -76 -29 -122 -23 -132 7
-13 28 -16 100 -16 l91 0 66 49 c37 28 74 58 83 68 14 16 58 161 58 191 0 8
-21 12 -63 12 l-63 0 -24 -90 c-22 -83 -27 -92 -63 -116 -21 -14 -40 -24 -42
-22 -2 2 10 50 26 107 16 58 29 108 29 113 0 4 -29 8 -65 8 -62 0 -65 -1 -71
-27z"/>
<path d="M2241 2923 c-29 -24 -96 -270 -80 -290 9 -10 50 -13 165 -13 l153 0
10 38 c6 20 11 40 11 45 0 4 -45 7 -101 7 -88 0 -100 2 -95 16 3 9 6 18 6 20
0 2 38 4 84 4 67 0 85 3 90 16 15 40 9 44 -74 44 -64 0 -80 3 -80 15 0 12 18
15 101 15 l100 0 15 35 c27 66 30 65 -135 65 -127 0 -152 -3 -170 -17z"/>
<path d="M2623 2925 c-13 -9 -27 -32 -33 -53 -5 -20 -23 -85 -39 -144 l-29
-108 67 0 66 0 29 110 29 110 33 0 c40 0 41 -5 15 -91 -11 -35 -22 -79 -26
-96 l-7 -33 65 0 65 0 21 78 c56 209 56 209 42 226 -19 23 -266 23 -298 1z"/>
<path d="M2971 2896 c-6 -25 -11 -47 -11 -50 0 -3 22 -6 49 -6 l50 0 -25 -87
c-13 -49 -27 -98 -30 -110 -6 -22 -4 -23 60 -23 l65 0 15 53 c8 28 22 78 31
109 l16 57 51 3 51 3 13 45 c8 25 14 46 14 48 0 1 -76 2 -169 2 l-169 0 -11
-44z"/>
<path d="M3550 2932 c0 -4 19 -27 43 -50 37 -37 48 -42 87 -42 75 0 86 7 97
56 l10 44 -118 0 c-66 0 -119 -4 -119 -8z"/>
<path d="M3842 2878 l-18 -63 -102 -3 -101 -3 -11 -42 c-6 -23 -18 -64 -26
-91 -8 -27 -14 -51 -14 -53 0 -2 30 -3 67 -1 l66 3 16 60 c15 57 18 60 49 63
38 4 40 -8 18 -81 l-14 -47 67 0 67 0 38 148 c22 81 41 153 44 160 3 9 -13 12
-62 12 l-65 0 -19 -62z"/>
<path d="M3996 2799 c-20 -77 -34 -149 -31 -160 6 -18 17 -19 148 -19 96 1
147 5 158 13 18 14 28 41 68 195 l30 113 -67 -3 -67 -3 -29 -112 -29 -113 -33
0 c-21 0 -34 5 -34 13 0 6 11 52 25 102 14 49 25 96 25 102 0 9 -19 13 -63 13
l-64 0 -37 -141z"/>
<path d="M4372 2787 c-23 -84 -42 -156 -42 -160 0 -4 69 -7 154 -7 153 0 155
0 174 25 25 31 38 101 23 119 -8 9 -5 18 13 35 13 13 29 43 35 68 18 71 14 73
-163 73 l-152 0 -42 -153z m216 41 c-5 -15 -78 -24 -78 -10 0 16 13 22 48 22
22 0 32 -4 30 -12z m-30 -95 c-4 -23 -68 -32 -68 -10 0 20 10 27 42 27 23 0
29 -4 26 -17z"/>
<path d="M1437 2803 c-13 -24 -39 -153 -34 -167 6 -15 25 -16 163 -14 l157 3
12 43 13 42 -100 0 c-89 0 -99 2 -96 18 3 14 18 18 87 22 82 5 85 6 92 33 l7
27 -148 0 c-82 0 -151 -3 -153 -7z"/>
<path d="M1407 2513 c-4 -3 -7 -24 -7 -45 0 -36 1 -38 33 -38 53 0 76 40 41
74 -16 16 -55 22 -67 9z m60 -29 c7 -19 -20 -49 -36 -40 -6 4 -11 18 -11 32 0
17 5 24 20 24 11 0 23 -7 27 -16z"/>
<path d="M1530 2475 c0 -25 5 -45 10 -45 6 0 10 20 10 45 0 25 -4 45 -10 45
-5 0 -10 -20 -10 -45z"/>
<path d="M1611 2511 c-20 -13 -7 -39 21 -43 13 -2 21 -7 18 -13 -3 -5 -16 -9
-30 -7 -19 3 -22 0 -14 -8 17 -17 68 -8 72 11 2 11 -8 20 -27 27 -36 13 -41
24 -8 22 35 -3 43 0 27 10 -19 12 -41 12 -59 1z"/>
<path d="M1736 2504 c-19 -18 -21 -45 -4 -62 15 -15 65 -16 74 -1 5 8 -1 10
-18 6 -17 -5 -30 -2 -38 8 -17 21 -4 47 22 45 36 -3 44 0 28 10 -22 14 -46 12
-64 -6z"/>
<path d="M1862 2508 c-16 -16 -15 -53 2 -67 8 -7 27 -11 43 -9 51 6 41 88 -11
88 -12 0 -27 -5 -34 -12z m56 -35 c-3 -31 -34 -44 -44 -19 -9 24 3 46 26 46
17 0 21 -5 18 -27z"/>
<path d="M2000 2478 c10 -24 23 -44 29 -46 8 -3 51 66 51 83 0 16 -18 1 -32
-27 l-15 -33 -17 33 c-24 47 -38 39 -16 -10z"/>
<path d="M2120 2475 l0 -45 43 1 c37 1 39 2 13 8 -35 7 -37 23 -4 33 22 6 21
6 -4 7 -38 1 -36 21 2 21 17 0 30 5 30 10 0 6 -18 10 -40 10 l-40 0 0 -45z"/>
<path d="M2250 2473 c1 -38 3 -44 11 -30 12 21 38 22 45 2 12 -29 23 -14 17
23 -7 41 -17 52 -50 52 -21 0 -23 -5 -23 -47z m50 17 c0 -5 -9 -10 -21 -10
-11 0 -17 5 -14 10 3 6 13 10 21 10 8 0 14 -4 14 -10z"/>
<path d="M2440 2475 l0 -45 38 1 c27 1 30 3 12 6 -41 8 -45 21 -9 31 32 10 32
10 7 11 -38 1 -46 21 -9 21 17 0 31 5 31 10 0 6 -16 10 -35 10 -35 0 -35 0
-35 -45z"/>
<path d="M2560 2510 c0 -16 33 -80 42 -80 7 0 48 72 48 85 0 16 -18 1 -32 -27
l-15 -33 -17 33 c-17 32 -26 40 -26 22z"/>
<path d="M2697 2513 c-4 -3 -7 -24 -7 -45 l0 -38 43 1 c37 1 39 2 13 8 -35 7
-37 23 -4 33 22 6 21 6 -4 7 -38 1 -36 21 2 21 17 0 30 5 30 10 0 11 -63 14
-73 3z"/>
<path d="M2820 2476 c0 -27 4 -45 10 -41 5 3 7 12 3 20 -8 21 11 18 32 -5 27
-30 35 -25 35 25 0 25 -4 45 -10 45 -5 0 -10 -12 -10 -27 l0 -27 -30 29 -30
29 0 -48z"/>
<path d="M2940 2510 c0 -5 7 -10 15 -10 10 0 15 -10 15 -29 0 -17 5 -33 10
-36 6 -4 10 8 10 29 0 25 4 36 15 36 8 0 15 5 15 10 0 6 -18 10 -40 10 -22 0
-40 -4 -40 -10z"/>
<path d="M3070 2505 c-16 -19 -7 -31 30 -39 19 -3 29 -10 25 -17 -4 -6 -18 -8
-31 -5 -14 4 -24 2 -24 -4 0 -7 14 -10 32 -8 44 4 50 34 11 50 l-28 11 30 6
c25 5 27 8 12 14 -28 11 -43 9 -57 -8z"/>
<path d="M3265 2508 c-3 -8 -7 -28 -8 -44 -2 -27 1 -29 34 -32 27 -2 36 1 36
12 0 9 -6 16 -13 16 -8 0 -12 11 -11 27 2 30 -29 46 -38 21z m25 -58 c0 -5 -4
-10 -10 -10 -5 0 -10 5 -10 10 0 6 5 10 10 10 6 0 10 -4 10 -10z"/>
<path d="M3440 2476 c0 -46 0 -46 35 -46 40 0 48 12 37 55 -7 24 -14 31 -40
33 -32 3 -32 3 -32 -42z m50 14 c0 -5 -7 -10 -15 -10 -8 0 -15 5 -15 10 0 6 7
10 15 10 8 0 15 -4 15 -10z m3 -35 c1 -5 -6 -11 -15 -13 -11 -2 -18 3 -18 13
0 17 30 18 33 0z"/>
<path d="M3560 2486 c0 -40 19 -59 57 -54 25 3 28 7 31 46 2 23 -1 42 -7 42
-5 0 -11 -17 -13 -37 -2 -30 -7 -38 -23 -38 -16 0 -21 8 -23 38 -4 46 -22 49
-22 3z"/>
<path d="M3700 2513 c0 -5 7 -17 15 -27 8 -11 15 -28 15 -38 0 -10 5 -18 10
-18 6 0 10 7 10 16 0 9 9 27 20 41 25 32 18 43 -11 17 -20 -18 -22 -18 -34 -1
-13 18 -25 23 -25 10z"/>
<path d="M3890 2510 c0 -5 7 -10 15 -10 10 0 15 -11 15 -35 0 -19 5 -35 10
-35 6 0 10 16 10 35 0 24 5 35 15 35 8 0 15 5 15 10 0 6 -18 10 -40 10 -22 0
-40 -4 -40 -10z"/>
<path d="M4010 2475 c0 -25 5 -45 10 -45 6 0 10 20 10 45 0 25 -4 45 -10 45
-5 0 -10 -20 -10 -45z"/>
<path d="M4091 2506 c-7 -8 -11 -27 -9 -43 2 -22 9 -29 32 -31 16 -2 33 1 39
7 7 7 1 10 -19 8 -25 -2 -29 2 -32 26 -3 25 0 27 30 27 25 0 29 3 18 10 -22
14 -46 12 -59 -4z"/>
<path d="M4213 2475 c0 -27 2 -40 4 -27 5 27 19 28 35 2 7 -11 19 -20 27 -20
11 0 11 4 -2 18 -10 10 -17 22 -17 27 0 5 7 17 17 27 9 10 12 18 6 18 -5 0
-18 -9 -28 -20 -23 -26 -33 -25 -38 3 -2 12 -4 0 -4 -28z"/>
<path d="M4340 2475 l0 -45 38 1 c31 2 32 3 9 6 -33 5 -31 25 4 34 24 7 24 7
-3 8 -35 1 -37 21 -3 21 14 0 25 5 25 10 0 6 -16 10 -35 10 -35 0 -35 0 -35
-45z"/>
<path d="M4460 2511 c0 -5 6 -11 14 -14 8 -3 16 -21 19 -39 l4 -33 1 38 c2 25
7 37 17 37 8 0 15 5 15 10 0 6 -16 10 -35 10 -19 0 -35 -4 -35 -9z"/>
<path d="M4581 2506 c-13 -15 -1 -29 37 -40 30 -10 17 -29 -14 -22 -14 4 -24
2 -24 -4 0 -7 15 -10 38 -8 46 4 50 27 7 47 l-30 15 30 6 c25 5 27 7 12 13
-27 10 -43 9 -56 -7z"/>
</g>
</svg>
