<?xml version="1.0" standalone="no"?>
<!DOCTYPE svg PUBLIC "-//W3C//DTD SVG 20010904//EN"
 "http://www.w3.org/TR/2001/REC-SVG-20010904/DTD/svg10.dtd">
<svg version="1.0" xmlns="http://www.w3.org/2000/svg"
 width="500.000000pt" height="500.000000pt" viewBox="0 0 500.000000 500.000000"
 preserveAspectRatio="xMidYMid meet">

<g transform="translate(0.000000,500.000000) scale(0.100000,-0.100000)"
fill="#000000" stroke="none">
<path d="M2280 4489 c-270 -27 -587 -137 -828 -287 -126 -78 -226 -157 -340
-267 -178 -170 -297 -335 -408 -560 -379 -771 -217 -1704 398 -2301 272 -264
564 -427 923 -515 912 -224 1855 218 2270 1064 334 682 252 1492 -214 2102
-68 90 -235 258 -331 335 -417 332 -935 483 -1470 429z m525 -34 c344 -55 671
-199 935 -412 100 -81 271 -258 348 -361 192 -257 318 -563 374 -907 21 -132
15 -456 -11 -601 -72 -411 -244 -751 -526 -1043 -309 -320 -675 -512 -1120
-587 -158 -27 -473 -25 -639 5 -309 54 -596 177 -846 361 -110 81 -329 301
-413 415 -179 243 -303 535 -358 847 -29 163 -32 481 -6 633 56 320 171 601
353 857 81 115 336 368 451 448 298 208 613 324 988 364 80 8 372 -3 470 -19z"/>
<path d="M2410 4285 c0 -23 4 -25 45 -25 l45 0 0 -120 0 -120 35 0 35 0 0 115
0 115 50 0 c46 0 50 2 50 24 0 31 -19 36 -152 36 l-108 0 0 -25z"/>
<path d="M2276 4292 c-3 -6 3 -54 14 -107 11 -54 20 -102 20 -108 0 -6 -33 35
-72 92 -73 102 -73 102 -108 96 -56 -10 -70 -16 -70 -29 0 -7 11 -68 25 -136
14 -68 25 -124 25 -126 0 -11 52 -2 56 10 3 8 -3 59 -14 113 -11 54 -19 99
-18 100 2 2 113 -152 137 -189 6 -10 86 -2 106 10 8 5 3 50 -16 142 -26 130
-28 135 -53 138 -14 2 -29 -1 -32 -6z"/>
<path d="M2821 4134 c-23 -75 -40 -138 -38 -140 3 -3 17 -6 32 -7 25 -2 30 3
45 48 9 28 21 49 26 48 81 -19 106 -27 110 -37 3 -7 -2 -31 -11 -55 -20 -57
-20 -57 15 -69 l30 -11 43 137 c45 140 45 143 1 156 -18 5 -23 -1 -38 -50 -10
-33 -22 -54 -29 -51 -7 2 -35 12 -64 21 l-52 17 19 54 c20 58 20 59 -21 68
-25 6 -26 4 -68 -129z"/>
<path d="M1875 4179 c-49 -22 -93 -43 -97 -47 -7 -7 89 -242 105 -259 9 -8
207 79 207 92 0 5 -4 16 -9 24 -8 12 -21 9 -83 -16 l-73 -31 -12 21 c-21 37
-15 44 52 72 36 16 65 30 65 32 0 2 -5 13 -10 23 -10 18 -13 18 -76 -10 -36
-17 -67 -30 -69 -30 -2 0 -8 14 -14 30 -10 30 -10 31 46 55 30 14 59 25 64 25
14 0 21 19 14 40 -4 11 -9 20 -13 19 -4 0 -47 -18 -97 -40z"/>
<path d="M3142 4058 c-67 -118 -69 -151 -13 -201 51 -46 102 -61 146 -43 24
10 46 36 83 98 68 111 68 112 37 126 -14 7 -27 12 -29 12 -2 0 -24 -36 -49
-79 -49 -85 -77 -112 -107 -104 -24 6 -60 40 -60 56 0 7 23 52 50 100 28 48
50 91 50 96 0 6 -42 31 -53 31 -1 0 -26 -42 -55 -92z"/>
<path d="M1664 4074 l-22 -15 35 -110 c19 -61 33 -113 31 -115 -2 -2 -46 27
-98 65 l-94 69 -28 -21 -27 -20 77 -56 c42 -31 98 -72 124 -90 l47 -34 39 29
c21 16 38 34 36 39 -27 97 -87 275 -92 274 -4 0 -17 -7 -28 -15z"/>
<path d="M3395 3863 l-99 -106 73 -69 c63 -59 78 -68 110 -68 55 0 92 50 70
92 -10 19 -9 20 11 15 54 -14 104 48 78 95 -7 14 -43 52 -79 86 l-65 61 -99
-106z m153 -16 c34 -35 35 -60 5 -71 -15 -6 -28 0 -71 38 l-22 20 22 23 c12
13 24 23 28 23 3 0 21 -15 38 -33z m-79 -81 c34 -35 38 -62 10 -79 -13 -8 -26
-3 -58 22 l-41 32 22 30 c12 16 25 29 28 29 3 0 21 -15 39 -34z"/>
<path d="M1359 3823 c-24 -27 -58 -63 -74 -82 l-30 -33 105 -99 105 -99 77 83
c42 45 77 85 78 89 0 4 -10 12 -21 19 -19 10 -27 5 -74 -47 l-53 -59 -26 24
-25 24 49 55 c38 43 47 59 39 69 -18 21 -30 16 -78 -38 l-46 -51 -25 20 -24
20 53 61 c44 51 51 64 41 76 -18 21 -21 20 -71 -32z"/>
<path d="M2285 3765 c-169 -27 -340 -96 -494 -199 -273 -182 -453 -438 -538
-766 -30 -118 -42 -340 -24 -473 65 -489 414 -901 888 -1051 240 -75 524 -75
768 1 238 74 470 234 619 427 188 243 276 497 276 796 0 628 -446 1157 -1066
1265 -104 18 -316 18 -429 0z m382 -16 c529 -72 953 -465 1068 -989 24 -113
30 -324 11 -446 -72 -472 -400 -861 -848 -1008 -392 -129 -816 -63 -1143 178
-252 185 -424 454 -492 766 -25 119 -25 381 0 500 97 449 407 799 837 944 58
19 141 42 185 49 98 18 276 21 382 6z"/>
<path d="M2615 3245 c-35 -29 -95 -33 -135 -10 -14 8 -33 14 -42 15 -10 0 -73
-69 -154 -167 -190 -232 -294 -357 -398 -481 -116 -139 -116 -139 -77 -198 34
-52 38 -76 16 -114 -28 -50 -20 -74 47 -132 81 -68 81 -69 130 -163 70 -138
67 -136 152 -129 l72 7 34 -37 c20 -21 44 -36 58 -36 13 0 91 38 175 83 271
150 651 355 678 367 41 19 55 52 41 99 -15 47 -6 76 37 120 17 18 31 42 31 54
0 21 -160 326 -190 362 -11 14 -24 16 -62 12 -53 -7 -58 0 -33 43 31 55 30 56
-185 229 -69 55 -134 101 -145 100 -11 0 -33 -11 -50 -24z m75 -32 c44 -31
245 -195 262 -215 16 -18 16 -23 3 -48 -21 -41 -19 -96 6 -140 14 -25 19 -46
15 -62 -3 -12 -74 -104 -157 -203 -83 -99 -216 -260 -296 -357 -80 -98 -149
-178 -154 -178 -6 0 -24 7 -41 16 -40 21 -106 14 -147 -16 -18 -12 -37 -20
-44 -17 -23 9 -282 230 -285 242 -2 7 4 30 12 50 9 21 16 43 16 50 0 16 -26
74 -46 101 -14 21 -11 26 67 120 45 55 107 130 138 168 31 38 92 113 136 166
44 54 116 141 160 195 82 100 104 125 109 125 2 0 20 -7 39 -15 53 -22 99 -19
138 9 42 30 39 30 69 9z m462 -513 c47 -85 87 -163 87 -172 1 -9 -10 -25 -24
-36 -39 -31 -58 -95 -43 -145 14 -47 17 -45 -122 -119 -52 -28 -138 -74 -190
-103 -221 -121 -487 -264 -513 -276 -25 -11 -30 -10 -55 13 -44 41 -70 50
-135 46 l-61 -3 -24 43 c-13 24 -22 46 -19 48 3 3 23 -6 44 -20 47 -32 67 -33
105 -1 34 29 91 33 122 10 27 -20 62 -19 83 3 28 28 69 54 183 114 58 30 121
64 140 75 19 11 93 50 164 88 71 37 137 76 148 87 30 30 22 70 -37 173 -30 54
-55 103 -55 109 0 6 16 31 35 55 47 59 52 84 26 117 -25 32 -12 57 28 52 21
-3 39 -27 113 -158z m-187 -182 c20 -40 41 -78 47 -85 20 -25 4 -56 -42 -80
-25 -13 -76 -41 -115 -62 -38 -21 -110 -60 -160 -86 -49 -26 -99 -54 -110 -61
-22 -16 -45 -18 -45 -5 0 8 73 100 287 359 42 50 82 92 89 92 7 0 29 -33 49
-72z"/>
<path d="M2374 2963 c-54 -65 -130 -156 -168 -203 -39 -47 -102 -123 -141
-170 -39 -47 -79 -96 -88 -110 -33 -48 -24 -63 101 -167 172 -144 205 -169
227 -177 25 -7 57 24 196 194 52 63 152 184 222 268 94 114 127 161 127 181 0
32 -15 47 -193 195 -96 79 -136 106 -157 106 -23 0 -43 -19 -126 -117z m291
-46 c89 -72 145 -125 145 -136 0 -10 -71 -103 -158 -207 -86 -104 -195 -235
-241 -291 -46 -57 -90 -103 -98 -103 -19 0 -313 239 -313 255 0 15 12 30 275
350 143 174 215 254 227 253 9 -2 83 -56 163 -121z"/>
<path d="M2432 2708 c-31 -32 -32 -32 -78 -20 -26 7 -49 10 -52 8 -3 -3 6 -26
18 -50 l24 -44 -27 -35 c-15 -20 -27 -39 -27 -43 0 -4 22 -4 50 -1 50 6 50 6
84 -39 l35 -45 6 38 c11 66 21 81 65 93 22 6 40 15 40 20 0 5 -17 17 -37 25
-46 20 -53 29 -53 83 0 23 -3 42 -8 42 -4 0 -22 -14 -40 -32z"/>
<path d="M1157 3488 c-10 -48 -34 -75 -77 -86 l-35 -10 32 -7 c40 -9 61 -32
78 -87 12 -37 14 -39 14 -15 1 49 27 84 73 100 36 13 39 16 17 16 -41 1 -77
36 -87 84 l-8 42 -7 -37z"/>
<path d="M3772 3479 c-13 -53 -23 -63 -72 -77 l-35 -9 30 -8 c43 -11 63 -32
77 -79 l11 -41 7 30 c11 52 28 73 72 88 37 13 39 16 16 16 -40 1 -79 40 -87
87 l-7 39 -12 -46z"/>
<path d="M1090 3041 c-18 -34 -12 -78 12 -95 38 -27 76 -20 98 17 11 17 20 35
20 39 0 5 -105 58 -116 58 -2 0 -8 -9 -14 -19z m64 -21 c49 -21 49 -20 40 -44
-11 -30 -41 -38 -74 -21 -29 15 -37 36 -24 69 8 20 3 20 58 -4z"/>
<path d="M3868 3049 c-13 -7 -18 -22 -18 -50 0 -33 -3 -40 -17 -37 -13 3 -17
12 -16 31 1 15 -2 27 -8 27 -15 0 -10 -56 5 -69 27 -23 56 4 56 50 0 33 3 40
18 37 12 -3 17 -13 15 -36 -1 -21 3 -32 10 -29 19 6 20 47 1 68 -20 22 -22 22
-46 8z"/>
<path d="M1010 2823 c0 -5 27 -17 60 -26 69 -20 70 -20 70 -9 0 5 -24 14 -52
22 -29 7 -59 15 -65 17 -7 3 -13 1 -13 -4z"/>
<path d="M3866 2800 c4 -19 10 -44 15 -55 7 -18 8 -17 8 6 1 23 7 27 56 39 30
7 55 17 55 22 0 11 -7 10 -64 -7 -27 -8 -50 -14 -51 -13 -1 2 -7 12 -14 23
-10 17 -11 15 -5 -15z"/>
<path d="M981 2661 c-25 -25 -27 -44 -5 -65 22 -23 30 -20 60 20 25 32 28 34
43 19 15 -15 14 -17 -3 -31 -11 -7 -17 -17 -13 -20 13 -13 38 20 35 45 -5 39
-37 40 -68 1 -16 -19 -32 -30 -38 -26 -18 11 -14 44 5 55 10 5 15 12 11 16 -3
4 -16 -3 -27 -14z"/>
<path d="M4031 2608 c-1 -33 -4 -38 -25 -38 -19 0 -26 6 -29 28 -4 25 -4 24
-6 -6 -1 -29 -4 -33 -23 -30 -16 2 -25 12 -30 33 -6 26 -6 25 -5 -10 l2 -40
60 3 c33 2 63 7 67 10 3 4 3 25 -2 47 l-8 40 -1 -37z"/>
<path d="M967 2432 c-20 -22 -22 -63 -5 -80 20 -20 32 -13 14 7 -23 25 -17 52
15 70 24 13 29 13 53 -2 30 -20 33 -43 9 -69 -14 -16 -15 -18 0 -18 9 0 19 5
23 11 13 21 5 73 -12 86 -26 19 -78 16 -97 -5z"/>
<path d="M3920 2415 c0 -5 12 -22 27 -37 l27 -28 -27 0 c-15 0 -27 -4 -27 -10
0 -6 31 -10 72 -10 71 0 86 15 23 22 l-30 4 38 23 c52 32 47 49 -6 18 l-44
-26 -26 27 c-15 15 -27 22 -27 17z"/>
<path d="M992 2194 c-28 -19 -30 -74 -4 -97 42 -38 112 -8 112 47 0 58 -58 85
-108 50z m86 -16 c16 -16 15 -53 -2 -67 -20 -17 -77 -10 -89 11 -8 12 -7 24 1
42 9 20 19 26 45 26 18 0 38 -5 45 -12z"/>
<path d="M3910 2181 c-17 -32 -12 -58 16 -80 46 -36 98 -22 109 29 7 31 -7 60
-28 60 -7 0 -7 -4 1 -12 7 -7 12 -21 12 -33 0 -28 -19 -45 -50 -45 -48 0 -67
45 -33 82 15 16 15 18 0 18 -9 0 -21 -9 -27 -19z"/>
<path d="M1077 1937 c-26 -23 -47 -45 -47 -49 0 -3 32 -8 70 -10 39 -2 70 0
70 5 0 4 -25 7 -55 7 -30 0 -55 3 -55 8 0 4 18 20 40 36 37 28 51 47 33 46 -5
-1 -29 -20 -56 -43z"/>
<path d="M3866 1961 c14 -13 114 -40 114 -30 0 4 -23 15 -52 24 -59 17 -76 19
-62 6z"/>
<path d="M3802 1823 c-25 -70 -25 -70 -9 -50 14 17 17 16 62 -3 69 -30 80 -18
13 12 -48 22 -56 30 -51 47 8 31 -3 26 -15 -6z"/>
<path d="M1168 1739 l-58 -29 17 -35 c9 -19 20 -35 25 -35 5 0 2 13 -7 30 -14
27 -14 30 5 40 17 9 22 7 32 -15 6 -14 15 -25 20 -25 5 0 2 13 -7 29 -14 28
-14 30 6 36 11 4 22 5 23 3 1 -1 10 -14 19 -28 23 -33 22 -8 -1 29 l-17 29
-57 -29z"/>
<path d="M1273 1552 c-29 -21 -50 -42 -46 -46 3 -3 15 2 25 11 29 26 44 3 24
-36 -10 -18 -12 -31 -6 -31 6 0 15 11 22 25 6 13 15 22 20 19 4 -3 17 -2 28 1
25 8 26 45 2 74 l-17 22 -52 -39z m74 -27 c-2 -5 -13 -11 -24 -13 -28 -4 -40
28 -16 46 15 11 20 10 31 -5 7 -9 11 -22 9 -28z"/>
<path d="M3630 1525 c0 -4 7 -19 15 -35 l14 -28 -42 4 c-32 3 -37 2 -22 -5 11
-5 30 -10 41 -10 12 -1 33 -10 48 -22 27 -22 37 -11 10 12 -9 7 -23 30 -31 51
-8 21 -19 38 -24 38 -5 0 -9 -2 -9 -5z"/>
<path d="M3490 1376 c0 -5 14 -26 31 -47 57 -72 14 -108 -52 -43 -21 21 -39
34 -39 28 0 -16 74 -84 91 -84 26 0 52 36 46 62 -6 23 -77 100 -77 84z"/>
<path d="M1534 1282 c-16 -20 -34 -43 -38 -50 -9 -15 8 -38 38 -54 19 -9 18
-8 -3 16 -23 25 -24 28 -8 43 15 16 18 15 37 -2 11 -10 23 -16 26 -12 3 3 -3
12 -15 19 -24 15 -27 31 -8 47 11 8 18 6 32 -9 10 -11 23 -20 28 -20 6 0 -2
14 -18 30 -16 17 -31 30 -34 30 -3 0 -20 -17 -37 -38z"/>
<path d="M3280 1202 l-23 -18 34 -52 c19 -28 37 -52 40 -52 4 0 18 9 33 21 31
24 34 59 7 66 -11 3 -21 15 -23 27 -4 28 -38 32 -68 8z m55 -3 c4 -5 -1 -19
-11 -30 -16 -18 -19 -18 -33 -4 -15 15 -14 18 3 31 24 17 33 18 41 3z m35 -58
c0 -10 -7 -25 -16 -32 -14 -11 -18 -10 -30 6 -10 13 -11 22 -3 32 17 20 49 16
49 -6z"/>
<path d="M1717 1163 c-4 -21 -9 -53 -13 -70 -9 -44 6 -43 64 4 26 21 49 39 51
40 2 2 2 6 -2 9 -3 3 -27 -11 -53 -32 l-47 -39 7 40 c4 22 10 50 13 63 3 12 1
22 -5 22 -5 0 -12 -17 -15 -37z"/>
<path d="M1915 1053 c-38 -87 -38 -82 2 -98 20 -8 38 -13 41 -11 2 3 -8 11
-24 18 -16 6 -30 13 -32 14 -2 1 1 12 8 23 9 17 15 19 30 11 10 -5 25 -10 32
-10 7 1 -2 9 -20 18 -28 16 -31 20 -19 35 10 15 18 16 40 8 15 -6 27 -7 27 -2
0 5 -8 11 -17 14 -10 2 -26 8 -35 12 -13 5 -21 -2 -33 -32z"/>
<path d="M2930 1035 c-6 -8 -8 -20 -4 -27 4 -6 7 -29 5 -49 -2 -47 25 -60 67
-33 15 10 36 17 47 16 18 -2 19 -2 3 8 -10 6 -18 21 -18 33 -1 19 -2 20 -11 5
-9 -16 -12 -16 -45 -1 -36 17 -44 51 -11 45 9 -2 17 2 17 8 0 15 -36 12 -50
-5z m55 -68 c21 -16 13 -37 -15 -37 -22 0 -34 15 -26 35 7 19 17 19 41 2z"/>
<path d="M2111 973 c-7 -27 -14 -56 -17 -65 -3 -10 -1 -18 5 -18 6 0 14 18 17
40 9 57 20 57 39 0 27 -80 32 -76 61 43 3 16 2 27 -4 27 -6 0 -13 -18 -17 -40
-4 -22 -10 -40 -14 -40 -4 0 -15 23 -25 50 -10 28 -22 50 -26 50 -4 0 -13 -21
-19 -47z"/>
<path d="M2353 973 c14 -4 17 -16 18 -66 1 -46 3 -56 9 -37 4 14 8 40 9 58 1
25 5 32 22 32 11 0 17 5 14 10 -3 6 -25 9 -48 9 -23 -1 -34 -3 -24 -6z"/>
<path d="M2565 966 c-25 -18 -13 -44 31 -62 19 -8 34 -20 31 -27 -5 -17 -48
-21 -58 -6 -4 8 -12 10 -16 5 -10 -9 25 -36 47 -36 21 0 40 20 40 43 0 11 -13
23 -35 33 -19 8 -35 21 -35 29 0 18 31 20 48 3 9 -9 12 -8 12 4 0 14 -19 28
-39 28 -4 0 -16 -6 -26 -14z"/>
</g>
</svg>
